<svg width="150" height="51" viewBox="0 0 150 51" fill="none" xmlns="http://www.w3.org/2000/svg">
<path d="M56.1172 31.8821H55.9718C55.8748 32.5124 55.0748 33.1427 53.5717 33.773L48.1171 35.9548C46.5656 36.5852 45.3777 37.4821 44.5535 38.6458C43.7292 39.7609 43.3171 41.167 43.3171 42.864C43.3171 43.5913 43.3898 44.3428 43.5353 45.1186C43.6807 45.8943 43.9474 46.5974 44.3353 47.2277C44.7232 47.8095 45.2565 48.2943 45.9353 48.6822C46.6626 49.0701 47.5838 49.264 48.699 49.264C50.299 49.264 51.5838 48.9246 52.5535 48.2459C53.5717 47.5671 54.3232 46.7186 54.8081 45.7004C55.3414 44.6822 55.6808 43.5913 55.8263 42.4276C56.0202 41.2155 56.1172 40.1246 56.1172 39.1549V31.8821ZM68.8446 48.9004C68.2143 49.3853 67.4628 49.7974 66.59 50.1368C65.7173 50.5247 64.6506 50.7186 63.39 50.7186C61.0627 50.7186 59.3657 50.2338 58.299 49.264C57.2808 48.2459 56.5778 46.8398 56.1899 45.0458H56.0445C55.8505 45.4822 55.5839 46.0398 55.2445 46.7186C54.9051 47.3489 54.3717 47.9792 53.6444 48.6095C52.9657 49.1913 52.0444 49.6762 50.8808 50.0641C49.7172 50.5004 48.2383 50.7186 46.4444 50.7186C44.408 50.7186 42.7837 50.4762 41.5716 49.9913C40.3595 49.555 39.414 48.9974 38.7352 48.3186C38.0564 47.6398 37.5958 46.8883 37.3534 46.064C37.1595 45.1913 37.0625 44.3913 37.0625 43.664C37.0625 41.967 37.4019 40.6094 38.0807 39.5912C38.7595 38.573 39.6322 37.773 40.6989 37.1912C41.8141 36.5609 43.0262 36.0518 44.3353 35.6639C45.6929 35.2761 47.0505 34.8639 48.4081 34.4276C50.0081 33.8942 51.3172 33.4336 52.3354 33.0457C53.402 32.6578 54.2263 32.1972 54.8081 31.6639C55.3899 31.0821 55.7778 30.379 55.9718 29.5548C56.2142 28.6821 56.3354 27.5184 56.3354 26.0639C56.3354 24.9002 56.2627 23.8578 56.1172 22.9366C55.9717 22.0153 55.7051 21.2396 55.3172 20.6093C54.9293 19.9305 54.3717 19.4214 53.6444 19.082C52.9172 18.7426 51.9475 18.5729 50.7353 18.5729C49.1353 18.5729 47.802 18.8638 46.7353 19.4456C45.7171 19.979 45.208 20.8759 45.208 22.1365C45.208 22.9608 45.2808 23.785 45.4262 24.6093C45.5717 25.3851 45.6444 25.9669 45.6444 26.3548C45.6444 27.0336 45.402 27.6154 44.9171 28.1002C44.4323 28.5366 43.7292 28.7548 42.808 28.7548C41.208 28.7548 40.214 28.4639 39.8262 27.882C39.4383 27.3002 39.2443 26.5487 39.2443 25.6275C39.2443 24.5608 39.4868 23.5426 39.9716 22.5729C40.4565 21.6032 41.1595 20.7547 42.0807 20.0274C43.0504 19.2517 44.2383 18.6456 45.6444 18.2092C47.0989 17.7729 48.7475 17.5547 50.5899 17.5547C52.8202 17.5547 54.6869 17.8456 56.1899 18.4274C57.693 18.9608 58.9051 19.7123 59.8263 20.682C60.7475 21.6032 61.4021 22.6699 61.79 23.882C62.1779 25.0457 62.3718 26.282 62.3718 27.5911V45.7004C62.3718 47.1065 62.59 48.0519 63.0264 48.5368C63.4627 49.0216 64.093 49.264 64.9173 49.264C65.4506 49.264 66.0082 49.1671 66.59 48.9731C67.1719 48.7792 67.7294 48.4883 68.2628 48.1004L68.8446 48.9004Z" fill="#F0F5F9"/>
<path d="M73.1679 39.5185H73.9679C74.3073 40.6822 74.7437 41.87 75.277 43.0822C75.8104 44.2458 76.5134 45.3367 77.3861 46.3549C78.3073 47.3246 79.4225 48.1246 80.7316 48.7549C82.0407 49.3853 83.6165 49.7004 85.4589 49.7004C87.0105 49.7004 88.3923 49.2398 89.6044 48.3186C90.8166 47.3489 91.4226 45.7974 91.4226 43.664C91.4226 41.8216 90.9378 40.5367 89.9681 39.8094C89.0468 39.0337 87.9559 38.4276 86.6953 37.9912L81.0225 36.0276C80.2952 35.7851 79.4952 35.4942 78.6225 35.1548C77.7983 34.767 77.0225 34.2579 76.2952 33.6276C75.5679 32.9488 74.9619 32.1003 74.477 31.0821C74.0406 30.0639 73.8225 28.7548 73.8225 27.1548C73.8225 25.7972 74.0891 24.5366 74.6225 23.3729C75.1558 22.2093 75.8831 21.1911 76.8043 20.3183C77.7255 19.4456 78.8165 18.7668 80.0771 18.282C81.3862 17.7971 82.7922 17.5547 84.2953 17.5547C85.362 17.5547 86.2104 17.6517 86.8408 17.8456C87.5195 17.9911 88.1014 18.1608 88.5862 18.3547C89.0711 18.5001 89.5075 18.6698 89.8953 18.8638C90.2832 19.0092 90.7438 19.082 91.2772 19.082C91.8105 19.082 92.1984 18.888 92.4408 18.5002H93.2408V26.7911H92.4408C92.1014 25.7245 91.7135 24.7063 91.2772 23.7366C90.8408 22.7184 90.3074 21.8214 89.6771 21.0456C89.0953 20.2699 88.3438 19.6638 87.4226 19.2274C86.5499 18.7911 85.5074 18.5729 84.2953 18.5729C81.968 18.5729 80.1498 19.1062 78.8407 20.1729C77.5801 21.1911 76.9498 22.5729 76.9498 24.3184C76.9498 25.8699 77.4831 27.0578 78.5498 27.882C79.6649 28.6578 81.2892 29.3851 83.4226 30.0639L88.7317 31.8094C91.0105 32.5851 92.8772 33.6518 94.3317 35.0094C95.7863 36.367 96.5136 38.1609 96.5136 40.3912C96.5136 41.7003 96.2469 42.9852 95.7136 44.2458C95.2287 45.5064 94.4772 46.6216 93.459 47.5913C92.4893 48.5125 91.2772 49.264 89.8226 49.8459C88.4165 50.4277 86.7923 50.7186 84.9498 50.7186C83.8831 50.7186 82.8892 50.5974 81.968 50.355C81.0953 50.161 80.271 49.9428 79.4952 49.7004C78.768 49.458 78.0892 49.2398 77.4589 49.0459C76.8286 48.8034 76.2467 48.6822 75.7134 48.6822C75.1801 48.6822 74.7922 48.8034 74.5497 49.0459C74.3073 49.2398 74.1134 49.458 73.9679 49.7004H73.1679V39.5185Z" fill="#F0F5F9"/>
<path d="M102.098 48.6822H107.698V19.5183H102.098V18.5002H113.952V48.6822H119.552V49.7004H102.098V48.6822Z" fill="#F0F5F9"/>
<path d="M125.654 39.5185H126.454C126.794 40.6822 127.23 41.87 127.763 43.0822C128.297 44.2458 129 45.3367 129.872 46.3549C130.794 47.3246 131.909 48.1246 133.218 48.7549C134.527 49.3853 136.103 49.7004 137.945 49.7004C139.497 49.7004 140.879 49.2398 142.091 48.3186C143.303 47.3489 143.909 45.7974 143.909 43.664C143.909 41.8216 143.424 40.5367 142.454 39.8094C141.533 39.0337 140.442 38.4276 139.182 37.9912L133.509 36.0276C132.781 35.7851 131.981 35.4942 131.109 35.1548C130.285 34.767 129.509 34.2579 128.781 33.6276C128.054 32.9488 127.448 32.1003 126.963 31.0821C126.527 30.0639 126.309 28.7548 126.309 27.1548C126.309 25.7972 126.575 24.5366 127.109 23.3729C127.642 22.2093 128.369 21.1911 129.291 20.3183C130.212 19.4456 131.303 18.7668 132.563 18.282C133.872 17.7971 135.278 17.5547 136.782 17.5547C137.848 17.5547 138.697 17.6517 139.327 17.8456C140.006 17.9911 140.588 18.1608 141.072 18.3547C141.557 18.5001 141.994 18.6698 142.382 18.8638C142.769 19.0092 143.23 19.082 143.763 19.082C144.297 19.082 144.685 18.888 144.927 18.5002H145.727V26.7911H144.927C144.588 25.7245 144.2 24.7063 143.763 23.7366C143.327 22.7184 142.794 21.8214 142.163 21.0456C141.582 20.2699 140.83 19.6638 139.909 19.2274C139.036 18.7911 137.994 18.5729 136.782 18.5729C134.454 18.5729 132.636 19.1062 131.327 20.1729C130.066 21.1911 129.436 22.5729 129.436 24.3184C129.436 25.8699 129.969 27.0578 131.036 27.882C132.151 28.6578 133.775 29.3851 135.909 30.0639L141.218 31.8094C143.497 32.5851 145.363 33.6518 146.818 35.0094C148.273 36.367 149 38.1609 149 40.3912C149 41.7003 148.733 42.9852 148.2 44.2458C147.715 45.5064 146.963 46.6216 145.945 47.5913C144.976 48.5125 143.763 49.264 142.309 49.8459C140.903 50.4277 139.279 50.7186 137.436 50.7186C136.369 50.7186 135.375 50.5974 134.454 50.355C133.582 50.161 132.757 49.9428 131.981 49.7004C131.254 49.458 130.575 49.2398 129.945 49.0459C129.315 48.8034 128.733 48.6822 128.2 48.6822C127.666 48.6822 127.278 48.8034 127.036 49.0459C126.794 49.2398 126.6 49.458 126.454 49.7004H125.654V39.5185Z" fill="#F0F5F9"/>
<path d="M107.919 1.77497C107.192 2.50225 106.828 3.39923 106.828 4.4659C106.828 5.53258 107.192 6.4538 107.919 7.22957C108.695 7.95685 109.616 8.32049 110.683 8.32049C111.749 8.32049 112.646 7.95685 113.374 7.22957C114.149 6.4538 114.537 5.53258 114.537 4.4659C114.537 3.39923 114.149 2.50225 113.374 1.77497C112.646 0.99921 111.749 0.611328 110.683 0.611328C109.616 0.611328 108.695 0.99921 107.919 1.77497Z" fill="#84A4F7"/>
<path fill-rule="evenodd" clip-rule="evenodd" d="M30.5344 37.0898C29.5312 44.0978 24.3483 49.6481 17.7695 50.786C17.7695 50.7843 17.7695 50.7826 17.7695 50.7809C17.7695 43.3997 23.4367 37.3816 30.5344 37.0898Z" fill="#F0F5F9"/>
<path fill-rule="evenodd" clip-rule="evenodd" d="M17.7735 18.4316C24.3678 19.5722 29.5595 25.1461 30.5453 32.1774C23.4443 31.8893 17.7734 25.8697 17.7734 18.4861C17.7734 18.4679 17.7735 18.4498 17.7735 18.4316Z" fill="#F0F5F9"/>
<path fill-rule="evenodd" clip-rule="evenodd" d="M0.0078125 37.1094C6.98969 37.5161 12.5319 43.467 12.5493 50.755C6.0793 49.5326 1.00329 44.0334 0.0078125 37.1094Z" fill="#F0F5F9"/>
<path fill-rule="evenodd" clip-rule="evenodd" d="M0 32.1673C6.99256 31.7597 12.5409 25.7908 12.5409 18.4874C12.5409 18.4825 12.5409 18.4776 12.5409 18.4727C6.05887 19.7009 0.977583 25.2223 0 32.1673Z" fill="#F0F5F9"/>
</svg>
